PathFileType	4	(X/Y/Z)	/tmp/tmp3fi8u4yx//results/MarkerData/Run_5.trc
DataRate	CameraRate	NumFrames	NumMarkers	Units	OrigDataRate	OrigDataStartFrame	OrigNumFrames
100	100	10	41	m	100	336	539
Frame#	Time	C7			CLAV			LACR			LASI			LCAL			LFAradius			LFAsuperior			LFAulna			LLEL			LMEL			LPSI			LTB1			LTB2			LTB3			LTH1			LTH2			LTH3			LTOE			LUA1			LUA2			LUA3			RACR			RASI			RCAL			RFAradius			RFAsuperior			RFAulna			RLEL			RMEL			RMT5			RPSI			RTB1			RTB2			RTB3			RTH1			RTH2			RTH3			RTOE			RUA1			RUA2			RUA3		
		X1	Y1	Z1	X2	Y2	Z2	X3	Y3	Z3	X4	Y4	Z4	X5	Y5	Z5	X6	Y6	Z6	X7	Y7	Z7	X8	Y8	Z8	X9	Y9	Z9	X10	Y10	Z10	X11	Y11	Z11	X12	Y12	Z12	X13	Y13	Z13	X14	Y14	Z14	X15	Y15	Z15	X16	Y16	Z16	X17	Y17	Z17	X18	Y18	Z18	X19	Y19	Z19	X20	Y20	Z20	X21	Y21	Z21	X22	Y22	Z22	X23	Y23	Z23	X24	Y24	Z24	X25	Y25	Z25	X26	Y26	Z26	X27	Y27	Z27	X28	Y28	Z28	X29	Y29	Z29	X30	Y30	Z30	X31	Y31	Z31	X32	Y32	Z32	X33	Y33	Z33	X34	Y34	Z34	X35	Y35	Z35	X36	Y36	Z36	X37	Y37	Z37	X38	Y38	Z38	X39	Y39	Z39	X40	Y40	Z40	X41	Y41	Z41

337	3.44	1.17008	1.50107	-0.421592	1.27238	1.39853	-0.379915	1.25037	1.48242	-0.579359	1.18529	0.951099	-0.560967	0.588646	0.654713	-0.497722	1.31714	1.10999	-0.599492	1.18967	1.16087	-0.713228	1.30145	1.04748	-0.63301	1.11692	1.21104	-0.736824	1.06506	1.19589	-0.660564	1.01425	1.02251	-0.489494	0.800276	0.453032	-0.529552	0.749461	0.506132	-0.567276	0.672154	0.506465	-0.511513	1.07956	0.809703	-0.620239	1.10052	0.666443	-0.602138	0.994745	0.577287	-0.601925	0.499711	0.435113	-0.468471	1.19392	1.38408	-0.670409	1.10818	1.34618	-0.673986	1.14112	1.27262	-0.710819	1.21644	1.45177	-0.246372	1.16546	0.95869	-0.309729	1.2149	0.0917112	-0.48485	1.16577	1.14128	-0.205079	1.02795	1.22667	-0.145309	1.12157	1.08841	-0.186353	0.954863	1.27753	-0.14379	0.938202	1.27844	-0.236238	1.44109	0.057086	-0.398446	1.00414	1.02223	-0.394137	1.32596	0.354416	-0.402804	1.28534	0.240695	-0.385001	1.32262	0.185431	-0.456496	1.13913	0.798115	-0.251734	1.20721	0.725509	-0.262588	1.20649	0.582921	-0.30938	1.44879	0.0938861	-0.472019	1.10676	1.36956	-0.169572	1.04319	1.3884	-0.193909	1.02276	1.32494	-0.161854
338	3.45	1.17088	1.49516	-0.419496	1.27352	1.39085	-0.381092	1.24669	1.4755	-0.581932	1.1823	0.944347	-0.559235	0.618635	0.65611	-0.499912	1.29939	1.08805	-0.610847	1.17028	1.15122	-0.714843	1.27812	1.02825	-0.646779	1.09927	1.20634	-0.734192	1.05109	1.19093	-0.656721	1.0102	1.01704	-0.490474	0.82543	0.447327	-0.532261	0.77568	0.50073	-0.570503	0.699327	0.504529	-0.514594	1.08241	0.801676	-0.618377	1.11077	0.660934	-0.604022	1.01119	0.565325	-0.605643	0.527516	0.436675	-0.47585	1.18349	1.3768	-0.670361	1.09652	1.34028	-0.670649	1.1262	1.26595	-0.707781	1.21759	1.44259	-0.243525	1.16011	0.953866	-0.308357	1.16903	0.096653	-0.486099	1.18226	1.12843	-0.204249	1.04258	1.20471	-0.138206	1.14133	1.07319	-0.184031	0.967358	1.25222	-0.133589	0.946154	1.25264	-0.224877	1.39537	0.0505671	-0.402332	0.999303	1.01842	-0.395669	1.31091	0.352277	-0.403638	1.26049	0.242565	-0.385102	1.28861	0.184692	-0.458792	1.13085	0.79948	-0.249664	1.20161	0.72839	-0.26229	1.20533	0.584551	-0.304859	1.40492	0.0821358	-0.477702	1.11383	1.34854	-0.165373	1.04759	1.36611	-0.183258	1.0315	1.30089	-0.154293
339	3.46	1.17209	1.49233	-0.417815	1.27421	1.38492	-0.382532	1.24361	1.46993	-0.584401	1.17881	0.938716	-0.556901	0.64783	0.653278	-0.503768	1.27904	1.06959	-0.62209	1.15035	1.14533	-0.715839	1.25239	1.01335	-0.660584	1.08088	1.20411	-0.731296	1.03702	1.18809	-0.653051	1.00686	1.01282	-0.492497	0.854204	0.441015	-0.533489	0.804835	0.493468	-0.573165	0.72894	0.499804	-0.517335	1.08594	0.794945	-0.616446	1.12188	0.657951	-0.60515	1.0299	0.555317	-0.6081	0.558563	0.432693	-0.483031	1.1736	1.37201	-0.669993	1.08511	1.33693	-0.666063	1.1109	1.26243	-0.704716	1.21807	1.4351	-0.241158	1.15429	0.952021	-0.30482	1.12129	0.100318	-0.485171	1.20046	1.1182	-0.20476	1.06037	1.18466	-0.132985	1.16352	1.06053	-0.182486	0.982628	1.22707	-0.124281	0.955029	1.22667	-0.213442	1.34759	0.0500878	-0.404097	0.994542	1.01585	-0.398882	1.29202	0.350476	-0.404069	1.2326	0.245484	-0.383174	1.25095	0.185115	-0.458742	1.12328	0.802046	-0.246828	1.19533	0.731249	-0.260596	1.20193	0.585897	-0.300231	1.3571	0.0778266	-0.480839	1.12246	1.32852	-0.162864	1.0538	1.34545	-0.172026	1.04176	1.27807	-0.147691
340	3.47	1.17297	1.49179	-0.416645	1.27418	1.38106	-0.38402	1.24058	1.46628	-0.586404	1.17613	0.935212	-0.555647	0.675164	0.646531	-0.508444	1.25643	1.05594	-0.632527	1.13021	1.14417	-0.716827	1.2246	1.00371	-0.673033	1.06233	1.20597	-0.728525	1.02262	1.18929	-0.649454	1.00505	1.01028	-0.495042	0.886147	0.434623	-0.533535	0.836732	0.485261	-0.575189	0.760461	0.492734	-0.519707	1.08981	0.790559	-0.614861	1.13468	0.657446	-0.605684	1.05143	0.548494	-0.609447	0.592428	0.423307	-0.490176	1.16438	1.37038	-0.669498	1.07424	1.33757	-0.660142	1.09547	1.26341	-0.70188	1.21839	1.42973	-0.24006	1.14959	0.953033	-0.300522	1.0726	0.10298	-0.483383	1.2203	1.11226	-0.206668	1.08126	1.16849	-0.130351	1.18825	1.05226	-0.182038	1.00075	1.20397	-0.116977	0.965183	1.20227	-0.202924	1.299	0.0504741	-0.403919	0.9912	1.01451	-0.402925	1.2684	0.345963	-0.404015	1.20086	0.245799	-0.380961	1.21065	0.183932	-0.457663	1.1175	0.804237	-0.244476	1.18825	0.731837	-0.258425	1.19375	0.584431	-0.297344	1.3079	0.0763276	-0.481476	1.13207	1.31286	-0.162133	1.06176	1.32814	-0.162615	1.05376	1.25871	-0.142741
341	3.48	1.17261	1.4919	-0.415861	1.2735	1.37928	-0.385384	1.23668	1.46493	-0.587666	1.17487	0.934091	-0.556108	0.700187	0.636068	-0.512744	1.23235	1.04818	-0.641604	1.10958	1.14756	-0.718316	1.19556	0.99969	-0.682801	1.04402	1.21281	-0.72618	1.00746	1.19583	-0.64568	1.00454	1.00958	-0.497065	0.920447	0.428727	-0.532772	0.870654	0.476908	-0.576504	0.79323	0.483778	-0.521739	1.09318	0.788804	-0.613694	1.14933	0.659169	-0.605611	1.0759	0.545307	-0.609882	0.628567	0.409024	-0.497655	1.15524	1.37206	-0.669013	1.06376	1.34263	-0.653645	1.08001	1.26923	-0.699545	1.21923	1.42687	-0.240329	1.1466	0.95563	-0.29729	1.02354	0.105216	-0.481979	1.24115	1.11223	-0.209909	1.10373	1.15775	-0.130266	1.2149	1.0501	-0.183128	1.02065	1.18518	-0.112434	0.977263	1.1817	-0.194826	1.24989	0.0498606	-0.403216	0.98955	1.01449	-0.406149	1.23996	0.337757	-0.404058	1.16556	0.2424	-0.380064	1.16841	0.180806	-0.457225	1.11336	0.804809	-0.243592	1.18048	0.728738	-0.256924	1.17986	0.579735	-0.296609	1.25857	0.0749224	-0.481225	1.14151	1.30375	-0.162333	1.07059	1.31504	-0.156892	1.06717	1.24435	-0.139668
342	3.49	1.17063	1.49167	-0.415191	1.27245	1.37943	-0.386667	1.2313	1.46583	-0.588095	1.17425	0.934835	-0.557022	0.723086	0.621966	-0.515757	1.20786	1.04694	-0.649059	1.08801	1.15472	-0.720285	1.16644	1.00128	-0.689254	1.02596	1.22427	-0.724387	0.991372	1.20761	-0.641778	1.0041	1.01038	-0.497413	0.956069	0.423885	-0.531372	0.905498	0.469063	-0.577033	0.826538	0.473443	-0.523465	1.09541	0.789044	-0.612834	1.16539	0.663236	-0.604611	1.10273	0.545719	-0.609331	0.66652	0.390638	-0.5058	1.14538	1.37685	-0.668551	1.05332	1.3515	-0.647684	1.06461	1.2792	-0.697842	1.22095	1.4268	-0.24136	1.14496	0.958084	-0.295901	0.974414	0.107628	-0.481292	1.26176	1.11893	-0.214375	1.12549	1.15304	-0.132003	1.24204	1.05497	-0.1861	1.04043	1.17234	-0.110647	0.991718	1.16675	-0.190408	1.20014	0.0489419	-0.403133	0.988829	1.01561	-0.407	1.20729	0.327306	-0.404926	1.1276	0.236898	-0.380776	1.1247	0.177245	-0.457961	1.10998	0.802872	-0.243965	1.17223	0.721831	-0.256477	1.16157	0.57315	-0.297276	1.20922	0.0732971	-0.481455	1.14989	1.30103	-0.162565	1.07921	1.30633	-0.154885	1.08116	1.23535	-0.138317
343	3.5	1.16752	1.49155	-0.414408	1.27137	1.38134	-0.388138	1.22444	1.46872	-0.587886	1.17295	0.936649	-0.556462	0.744364	0.604241	-0.517293	1.18392	1.0521	-0.654908	1.06565	1.16518	-0.722186	1.13841	1.00825	-0.692622	1.00799	1.23911	-0.723054	0.974793	1.22331	-0.638254	1.00258	1.01218	-0.495518	0.991998	0.420556	-0.529403	0.940179	0.462338	-0.576749	0.85977	0.462291	-0.52485	1.09669	0.790392	-0.612166	1.18206	0.670227	-0.602291	1.13076	0.549782	-0.607543	0.706203	0.369076	-0.514489	1.13445	1.38446	-0.668013	1.04277	1.36302	-0.642954	1.04948	1.29204	-0.696668	1.22349	1.42947	-0.242486	1.14394	0.959199	-0.295677	0.925481	0.110802	-0.480868	1.28065	1.132	-0.219935	1.14479	1.15394	-0.134631	1.26787	1.06661	-0.190989	1.05848	1.16569	-0.110842	1.0082	1.15788	-0.189731	1.14985	0.0485681	-0.403718	0.988209	1.01745	-0.404959	1.17143	0.317207	-0.406576	1.0877	0.231914	-0.382173	1.07997	0.174833	-0.459111	1.10622	0.798374	-0.244586	1.16329	0.712383	-0.256668	1.14091	0.566332	-0.29838	1.15966	0.07196	-0.482295	1.15734	1.3028	-0.162692	1.08722	1.30188	-0.15509	1.09475	1.23127	-0.138275
344	3.51	1.16429	1.49289	-0.413489	1.27043	1.38487	-0.390109	1.21667	1.47326	-0.587437	1.17065	0.938995	-0.553854	0.764542	0.582922	-0.517786	1.16118	1.06278	-0.659303	1.04342	1.17888	-0.723352	1.11237	1.01999	-0.693654	0.990124	1.25599	-0.721869	0.958342	1.24127	-0.635634	1.00007	1.01461	-0.491896	1.02755	0.419055	-0.527144	0.974017	0.457245	-0.575715	0.89261	0.450791	-0.525779	1.09818	0.792623	-0.611585	1.19844	0.680723	-0.59856	1.1585	0.557755	-0.604412	0.747993	0.345303	-0.522955	1.12269	1.39449	-0.667212	1.03227	1.37622	-0.639402	1.03476	1.30658	-0.695754	1.22667	1.43446	-0.243587	1.14316	0.958843	-0.295405	0.877019	0.115367	-0.480123	1.2967	1.15005	-0.226395	1.16123	1.1593	-0.137496	1.29084	1.08373	-0.197522	1.07429	1.16419	-0.111893	1.02544	1.15436	-0.191432	1.09934	0.0486902	-0.404403	0.987672	1.01965	-0.400846	1.13358	0.309543	-0.408077	1.04626	0.229288	-0.383122	1.03476	0.174205	-0.459652	1.10109	0.79263	-0.244816	1.1527	0.702546	-0.256901	1.11882	0.56042	-0.299411	1.10997	0.0710084	-0.483169	1.16489	1.30697	-0.163237	1.09509	1.30145	-0.155977	1.10731	1.2315	-0.138956
345	3.52	1.16177	1.49657	-0.412599	1.26967	1.38991	-0.392721	1.20875	1.47909	-0.587089	1.16849	0.941777	-0.550453	0.78418	0.558104	-0.517768	1.13998	1.07752	-0.662408	1.0225	1.19568	-0.723401	1.08873	1.03546	-0.693131	0.97272	1.27405	-0.720387	0.942299	1.26036	-0.633835	0.997901	1.01762	-0.48789	1.0625	0.419491	-0.525044	1.00676	0.453922	-0.574032	0.925133	0.439146	-0.526118	1.10121	0.796416	-0.610982	1.21359	0.694709	-0.593761	1.18457	0.569632	-0.600102	0.792477	0.32031	-0.530077	1.11065	1.40651	-0.665913	1.02208	1.39051	-0.636496	1.02046	1.32214	-0.694798	1.23035	1.44112	-0.245067	1.14281	0.957817	-0.294448	0.829355	0.122003	-0.478747	1.30945	1.17128	-0.233464	1.17553	1.16787	-0.140301	1.31012	1.1046	-0.205263	1.08845	1.1664	-0.112827	1.04184	1.15496	-0.1935	1.04886	0.0488755	-0.404824	0.98785	1.02226	-0.396249	1.09471	0.305117	-0.408448	1.00371	0.229533	-0.383092	0.989565	0.175292	-0.459146	1.09432	0.787966	-0.244856	1.13949	0.694457	-0.256893	1.09508	0.556248	-0.30029	1.06041	0.0701163	-0.483696	1.17345	1.31232	-0.164639	1.10345	1.30446	-0.156949	1.1188	1.23539	-0.139725
346	3.53	1.16002	1.5023	-0.411942	1.26903	1.39631	-0.395868	1.20131	1.48582	-0.586946	1.16794	0.945243	-0.547908	0.804074	0.530006	-0.51737	1.12051	1.09473	-0.664387	1.00362	1.21486	-0.722309	1.06754	1.05328	-0.69165	0.956271	1.29295	-0.718149	0.926716	1.28008	-0.632033	0.997513	1.02135	-0.484714	1.09675	0.421659	-0.523236	1.03835	0.4519	-0.571734	0.957662	0.427286	-0.525729	1.10634	0.802673	-0.610291	1.22686	0.711357	-0.588435	1.20801	0.584694	-0.594911	0.840011	0.295106	-0.534952	1.09904	1.42009	-0.663948	1.01251	1.40564	-0.633604	1.00661	1.33857	-0.69349	1.23439	1.44893	-0.247336	1.14338	0.957245	-0.293011	0.78297	0.131284	-0.476665	1.31901	1.19408	-0.24076	1.18857	1.17867	-0.14289	1.32565	1.12751	-0.213722	1.10191	1.17116	-0.11309	1.05626	1.1586	-0.194383	0.998461	0.04895	-0.405001	0.989195	1.02557	-0.392486	1.05553	0.303803	-0.407418	0.960835	0.232418	-0.382158	0.944857	0.177988	-0.457711	1.08654	0.786282	-0.245182	1.12401	0.689412	-0.256776	1.06965	0.554657	-0.300971	1.01123	0.0690395	-0.483897	1.18303	1.3186	-0.166766	1.11247	1.31007	-0.157935	1.1297	1.24213	-0.140109
